<mxfile host="app.diagrams.net" modified="2020-12-08T14:00:49.954Z" agent="5.0 (Windows NT 10.0; Win64; x64) AppleWebKit/537.36 (KHTML, like Gecko) Chrome/87.0.4280.67 Safari/537.36 Edg/87.0.664.55" etag="XI_WJsv74vccUxCznBOg" version="13.11.0" type="github">
  <diagram id="C5RBs43oDa-KdzZeNtuy" name="Page-1">
    <mxGraphModel dx="1038" dy="556" grid="0" gridSize="10" guides="1" tooltips="1" connect="1" arrows="1" fold="1" page="1" pageScale="1" pageWidth="827" pageHeight="1169" math="0" shadow="0">
      <root>
        <mxCell id="WIyWlLk6GJQsqaUBKTNV-0" />
        <mxCell id="WIyWlLk6GJQsqaUBKTNV-1" parent="WIyWlLk6GJQsqaUBKTNV-0" />
        <mxCell id="ZYBzafdJZzHo5ecvGrxg-4" value="" style="edgeStyle=orthogonalEdgeStyle;rounded=0;orthogonalLoop=1;jettySize=auto;html=1;" edge="1" parent="WIyWlLk6GJQsqaUBKTNV-1" source="ZYBzafdJZzHo5ecvGrxg-1" target="ZYBzafdJZzHo5ecvGrxg-2">
          <mxGeometry relative="1" as="geometry" />
        </mxCell>
        <mxCell id="ZYBzafdJZzHo5ecvGrxg-1" value="Start" style="ellipse;whiteSpace=wrap;html=1;fillColor=#f8cecc;strokeColor=#b85450;" vertex="1" parent="WIyWlLk6GJQsqaUBKTNV-1">
          <mxGeometry x="354" y="47" width="120" height="80" as="geometry" />
        </mxCell>
        <mxCell id="ZYBzafdJZzHo5ecvGrxg-5" value="" style="edgeStyle=orthogonalEdgeStyle;rounded=0;orthogonalLoop=1;jettySize=auto;html=1;" edge="1" parent="WIyWlLk6GJQsqaUBKTNV-1" source="ZYBzafdJZzHo5ecvGrxg-2" target="ZYBzafdJZzHo5ecvGrxg-3">
          <mxGeometry relative="1" as="geometry" />
        </mxCell>
        <mxCell id="ZYBzafdJZzHo5ecvGrxg-2" value="Level" style="shape=parallelogram;perimeter=parallelogramPerimeter;whiteSpace=wrap;html=1;fixedSize=1;fillColor=#dae8fc;strokeColor=#6c8ebf;" vertex="1" parent="WIyWlLk6GJQsqaUBKTNV-1">
          <mxGeometry x="354" y="183" width="120" height="60" as="geometry" />
        </mxCell>
        <mxCell id="ZYBzafdJZzHo5ecvGrxg-8" style="edgeStyle=orthogonalEdgeStyle;rounded=0;orthogonalLoop=1;jettySize=auto;html=1;" edge="1" parent="WIyWlLk6GJQsqaUBKTNV-1" source="ZYBzafdJZzHo5ecvGrxg-3" target="ZYBzafdJZzHo5ecvGrxg-2">
          <mxGeometry relative="1" as="geometry">
            <mxPoint x="557" y="56" as="targetPoint" />
            <Array as="points">
              <mxPoint x="547" y="348" />
              <mxPoint x="547" y="213" />
            </Array>
          </mxGeometry>
        </mxCell>
        <mxCell id="ZYBzafdJZzHo5ecvGrxg-11" value="" style="edgeStyle=orthogonalEdgeStyle;rounded=0;orthogonalLoop=1;jettySize=auto;html=1;" edge="1" parent="WIyWlLk6GJQsqaUBKTNV-1" source="ZYBzafdJZzHo5ecvGrxg-3" target="ZYBzafdJZzHo5ecvGrxg-10">
          <mxGeometry relative="1" as="geometry" />
        </mxCell>
        <mxCell id="ZYBzafdJZzHo5ecvGrxg-3" value="if input = Level" style="rhombus;whiteSpace=wrap;html=1;fillColor=#d5e8d4;strokeColor=#82b366;" vertex="1" parent="WIyWlLk6GJQsqaUBKTNV-1">
          <mxGeometry x="364.5" y="293" width="99" height="110" as="geometry" />
        </mxCell>
        <mxCell id="ZYBzafdJZzHo5ecvGrxg-9" value="Yes" style="text;html=1;strokeColor=none;fillColor=none;align=center;verticalAlign=middle;whiteSpace=wrap;rounded=0;" vertex="1" parent="WIyWlLk6GJQsqaUBKTNV-1">
          <mxGeometry x="479" y="323" width="40" height="20" as="geometry" />
        </mxCell>
        <mxCell id="ZYBzafdJZzHo5ecvGrxg-17" value="" style="edgeStyle=orthogonalEdgeStyle;rounded=0;orthogonalLoop=1;jettySize=auto;html=1;" edge="1" parent="WIyWlLk6GJQsqaUBKTNV-1" source="ZYBzafdJZzHo5ecvGrxg-10" target="ZYBzafdJZzHo5ecvGrxg-16">
          <mxGeometry relative="1" as="geometry" />
        </mxCell>
        <mxCell id="ZYBzafdJZzHo5ecvGrxg-28" value="" style="edgeStyle=orthogonalEdgeStyle;rounded=0;orthogonalLoop=1;jettySize=auto;html=1;" edge="1" parent="WIyWlLk6GJQsqaUBKTNV-1" source="ZYBzafdJZzHo5ecvGrxg-10" target="ZYBzafdJZzHo5ecvGrxg-27">
          <mxGeometry relative="1" as="geometry" />
        </mxCell>
        <mxCell id="ZYBzafdJZzHo5ecvGrxg-10" value="if input&amp;gt;level" style="rhombus;whiteSpace=wrap;html=1;fillColor=#d5e8d4;strokeColor=#82b366;" vertex="1" parent="WIyWlLk6GJQsqaUBKTNV-1">
          <mxGeometry x="362.5" y="450" width="103" height="107" as="geometry" />
        </mxCell>
        <mxCell id="ZYBzafdJZzHo5ecvGrxg-21" value="" style="edgeStyle=orthogonalEdgeStyle;rounded=0;orthogonalLoop=1;jettySize=auto;html=1;" edge="1" parent="WIyWlLk6GJQsqaUBKTNV-1" source="ZYBzafdJZzHo5ecvGrxg-12" target="ZYBzafdJZzHo5ecvGrxg-20">
          <mxGeometry relative="1" as="geometry" />
        </mxCell>
        <mxCell id="ZYBzafdJZzHo5ecvGrxg-12" value="level = level + 1" style="rounded=0;whiteSpace=wrap;html=1;fillColor=#fff2cc;strokeColor=#d6b656;" vertex="1" parent="WIyWlLk6GJQsqaUBKTNV-1">
          <mxGeometry x="620.5" y="798" width="120" height="60" as="geometry" />
        </mxCell>
        <mxCell id="ZYBzafdJZzHo5ecvGrxg-14" value="No" style="text;html=1;strokeColor=none;fillColor=none;align=center;verticalAlign=middle;whiteSpace=wrap;rounded=0;" vertex="1" parent="WIyWlLk6GJQsqaUBKTNV-1">
          <mxGeometry x="421" y="411" width="40" height="20" as="geometry" />
        </mxCell>
        <mxCell id="ZYBzafdJZzHo5ecvGrxg-15" value="Yes" style="text;html=1;strokeColor=none;fillColor=none;align=center;verticalAlign=middle;whiteSpace=wrap;rounded=0;" vertex="1" parent="WIyWlLk6GJQsqaUBKTNV-1">
          <mxGeometry x="479" y="471" width="40" height="20" as="geometry" />
        </mxCell>
        <mxCell id="ZYBzafdJZzHo5ecvGrxg-18" value="" style="edgeStyle=orthogonalEdgeStyle;rounded=0;orthogonalLoop=1;jettySize=auto;html=1;" edge="1" parent="WIyWlLk6GJQsqaUBKTNV-1" source="ZYBzafdJZzHo5ecvGrxg-16" target="ZYBzafdJZzHo5ecvGrxg-12">
          <mxGeometry relative="1" as="geometry" />
        </mxCell>
        <mxCell id="ZYBzafdJZzHo5ecvGrxg-24" value="" style="edgeStyle=orthogonalEdgeStyle;rounded=0;orthogonalLoop=1;jettySize=auto;html=1;" edge="1" parent="WIyWlLk6GJQsqaUBKTNV-1" source="ZYBzafdJZzHo5ecvGrxg-16">
          <mxGeometry relative="1" as="geometry">
            <mxPoint x="461" y="800" as="targetPoint" />
          </mxGeometry>
        </mxCell>
        <mxCell id="ZYBzafdJZzHo5ecvGrxg-16" value="level &amp;lt; input" style="rhombus;whiteSpace=wrap;html=1;strokeColor=#82b366;fillColor=#d5e8d4;" vertex="1" parent="WIyWlLk6GJQsqaUBKTNV-1">
          <mxGeometry x="524.5" y="633" width="96" height="100" as="geometry" />
        </mxCell>
        <mxCell id="ZYBzafdJZzHo5ecvGrxg-19" value="Yes" style="text;html=1;strokeColor=none;fillColor=none;align=center;verticalAlign=middle;whiteSpace=wrap;rounded=0;" vertex="1" parent="WIyWlLk6GJQsqaUBKTNV-1">
          <mxGeometry x="606.5" y="741" width="40" height="20" as="geometry" />
        </mxCell>
        <mxCell id="ZYBzafdJZzHo5ecvGrxg-22" style="edgeStyle=orthogonalEdgeStyle;rounded=0;orthogonalLoop=1;jettySize=auto;html=1;entryX=1;entryY=0.5;entryDx=0;entryDy=0;" edge="1" parent="WIyWlLk6GJQsqaUBKTNV-1" source="ZYBzafdJZzHo5ecvGrxg-20" target="ZYBzafdJZzHo5ecvGrxg-16">
          <mxGeometry relative="1" as="geometry">
            <Array as="points">
              <mxPoint x="787.5" y="934" />
              <mxPoint x="787.5" y="683" />
            </Array>
          </mxGeometry>
        </mxCell>
        <mxCell id="ZYBzafdJZzHo5ecvGrxg-20" value="new level" style="shape=parallelogram;perimeter=parallelogramPerimeter;whiteSpace=wrap;html=1;fixedSize=1;fillColor=#dae8fc;strokeColor=#6c8ebf;" vertex="1" parent="WIyWlLk6GJQsqaUBKTNV-1">
          <mxGeometry x="620.5" y="913" width="120" height="60" as="geometry" />
        </mxCell>
        <mxCell id="ZYBzafdJZzHo5ecvGrxg-40" style="edgeStyle=orthogonalEdgeStyle;rounded=0;orthogonalLoop=1;jettySize=auto;html=1;entryX=1;entryY=0.5;entryDx=0;entryDy=0;" edge="1" parent="WIyWlLk6GJQsqaUBKTNV-1" source="ZYBzafdJZzHo5ecvGrxg-25" target="ZYBzafdJZzHo5ecvGrxg-39">
          <mxGeometry relative="1" as="geometry" />
        </mxCell>
        <mxCell id="ZYBzafdJZzHo5ecvGrxg-25" value="New Level" style="shape=parallelogram;perimeter=parallelogramPerimeter;whiteSpace=wrap;html=1;fixedSize=1;fillColor=#dae8fc;strokeColor=#6c8ebf;" vertex="1" parent="WIyWlLk6GJQsqaUBKTNV-1">
          <mxGeometry x="403" y="801" width="120" height="60" as="geometry" />
        </mxCell>
        <mxCell id="ZYBzafdJZzHo5ecvGrxg-26" value="No" style="text;html=1;strokeColor=none;fillColor=none;align=center;verticalAlign=middle;whiteSpace=wrap;rounded=0;" vertex="1" parent="WIyWlLk6GJQsqaUBKTNV-1">
          <mxGeometry x="469" y="655" width="40" height="20" as="geometry" />
        </mxCell>
        <mxCell id="ZYBzafdJZzHo5ecvGrxg-31" value="" style="edgeStyle=orthogonalEdgeStyle;rounded=0;orthogonalLoop=1;jettySize=auto;html=1;" edge="1" parent="WIyWlLk6GJQsqaUBKTNV-1" source="ZYBzafdJZzHo5ecvGrxg-27" target="ZYBzafdJZzHo5ecvGrxg-30">
          <mxGeometry relative="1" as="geometry" />
        </mxCell>
        <mxCell id="ZYBzafdJZzHo5ecvGrxg-37" value="" style="edgeStyle=orthogonalEdgeStyle;rounded=0;orthogonalLoop=1;jettySize=auto;html=1;" edge="1" parent="WIyWlLk6GJQsqaUBKTNV-1" source="ZYBzafdJZzHo5ecvGrxg-27" target="ZYBzafdJZzHo5ecvGrxg-36">
          <mxGeometry relative="1" as="geometry" />
        </mxCell>
        <mxCell id="ZYBzafdJZzHo5ecvGrxg-27" value="level &amp;gt; input" style="rhombus;whiteSpace=wrap;html=1;strokeColor=#82b366;fillColor=#d5e8d4;" vertex="1" parent="WIyWlLk6GJQsqaUBKTNV-1">
          <mxGeometry x="132" y="620" width="80" height="80" as="geometry" />
        </mxCell>
        <mxCell id="ZYBzafdJZzHo5ecvGrxg-29" value="No" style="text;html=1;strokeColor=none;fillColor=none;align=center;verticalAlign=middle;whiteSpace=wrap;rounded=0;" vertex="1" parent="WIyWlLk6GJQsqaUBKTNV-1">
          <mxGeometry x="243" y="478" width="40" height="20" as="geometry" />
        </mxCell>
        <mxCell id="ZYBzafdJZzHo5ecvGrxg-33" value="" style="edgeStyle=orthogonalEdgeStyle;rounded=0;orthogonalLoop=1;jettySize=auto;html=1;" edge="1" parent="WIyWlLk6GJQsqaUBKTNV-1" source="ZYBzafdJZzHo5ecvGrxg-30" target="ZYBzafdJZzHo5ecvGrxg-32">
          <mxGeometry relative="1" as="geometry" />
        </mxCell>
        <mxCell id="ZYBzafdJZzHo5ecvGrxg-30" value="level = level - 1" style="rounded=0;whiteSpace=wrap;html=1;fillColor=#fff2cc;strokeColor=#d6b656;" vertex="1" parent="WIyWlLk6GJQsqaUBKTNV-1">
          <mxGeometry x="177" y="741" width="120" height="60" as="geometry" />
        </mxCell>
        <mxCell id="ZYBzafdJZzHo5ecvGrxg-35" style="edgeStyle=orthogonalEdgeStyle;rounded=0;orthogonalLoop=1;jettySize=auto;html=1;entryX=1;entryY=0.5;entryDx=0;entryDy=0;" edge="1" parent="WIyWlLk6GJQsqaUBKTNV-1" source="ZYBzafdJZzHo5ecvGrxg-32" target="ZYBzafdJZzHo5ecvGrxg-27">
          <mxGeometry relative="1" as="geometry">
            <Array as="points">
              <mxPoint x="338" y="864" />
              <mxPoint x="338" y="660" />
            </Array>
          </mxGeometry>
        </mxCell>
        <mxCell id="ZYBzafdJZzHo5ecvGrxg-32" value="new level" style="shape=parallelogram;perimeter=parallelogramPerimeter;whiteSpace=wrap;html=1;fixedSize=1;fillColor=#dae8fc;strokeColor=#6c8ebf;" vertex="1" parent="WIyWlLk6GJQsqaUBKTNV-1">
          <mxGeometry x="177" y="834" width="120" height="60" as="geometry" />
        </mxCell>
        <mxCell id="ZYBzafdJZzHo5ecvGrxg-34" value="Yes" style="text;html=1;strokeColor=none;fillColor=none;align=center;verticalAlign=middle;whiteSpace=wrap;rounded=0;" vertex="1" parent="WIyWlLk6GJQsqaUBKTNV-1">
          <mxGeometry x="195" y="703" width="40" height="20" as="geometry" />
        </mxCell>
        <mxCell id="ZYBzafdJZzHo5ecvGrxg-41" style="edgeStyle=orthogonalEdgeStyle;rounded=0;orthogonalLoop=1;jettySize=auto;html=1;entryX=0;entryY=0.5;entryDx=0;entryDy=0;" edge="1" parent="WIyWlLk6GJQsqaUBKTNV-1" source="ZYBzafdJZzHo5ecvGrxg-36" target="ZYBzafdJZzHo5ecvGrxg-39">
          <mxGeometry relative="1" as="geometry">
            <Array as="points">
              <mxPoint x="68" y="988" />
            </Array>
          </mxGeometry>
        </mxCell>
        <mxCell id="ZYBzafdJZzHo5ecvGrxg-36" value="New Level" style="shape=parallelogram;perimeter=parallelogramPerimeter;whiteSpace=wrap;html=1;fixedSize=1;strokeColor=#82b366;fillColor=#d5e8d4;" vertex="1" parent="WIyWlLk6GJQsqaUBKTNV-1">
          <mxGeometry x="8" y="755" width="120" height="60" as="geometry" />
        </mxCell>
        <mxCell id="ZYBzafdJZzHo5ecvGrxg-38" value="End" style="ellipse;whiteSpace=wrap;html=1;fillColor=#f8cecc;strokeColor=#b85450;" vertex="1" parent="WIyWlLk6GJQsqaUBKTNV-1">
          <mxGeometry x="381" y="1058" width="120" height="80" as="geometry" />
        </mxCell>
        <mxCell id="ZYBzafdJZzHo5ecvGrxg-42" style="edgeStyle=orthogonalEdgeStyle;rounded=0;orthogonalLoop=1;jettySize=auto;html=1;entryX=0.5;entryY=0;entryDx=0;entryDy=0;" edge="1" parent="WIyWlLk6GJQsqaUBKTNV-1" source="ZYBzafdJZzHo5ecvGrxg-39" target="ZYBzafdJZzHo5ecvGrxg-38">
          <mxGeometry relative="1" as="geometry" />
        </mxCell>
        <mxCell id="ZYBzafdJZzHo5ecvGrxg-39" value="" style="ellipse;whiteSpace=wrap;html=1;aspect=fixed;" vertex="1" parent="WIyWlLk6GJQsqaUBKTNV-1">
          <mxGeometry x="385" y="970" width="36" height="36" as="geometry" />
        </mxCell>
      </root>
    </mxGraphModel>
  </diagram>
</mxfile>
